<?xml version="1.0" encoding="UTF-8" standalone="no"?>
<svg
   width="60mm"
   height="60mm"
   version="1.1"
   viewBox="0 0 60 60"
   id="svg5"
   sodipodi:docname="librolibero_quad.svg"
   inkscape:version="1.4.2 (ebf0e940, 2025-05-08)"
   xmlns:inkscape="http://www.inkscape.org/namespaces/inkscape"
   xmlns:sodipodi="http://sodipodi.sourceforge.net/DTD/sodipodi-0.dtd"
   xmlns="http://www.w3.org/2000/svg"
   xmlns:svg="http://www.w3.org/2000/svg">
  <sodipodi:namedview
     id="namedview5"
     pagecolor="#ffffff"
     bordercolor="#000000"
     borderopacity="0.25"
     inkscape:showpageshadow="2"
     inkscape:pageopacity="0.0"
     inkscape:pagecheckerboard="0"
     inkscape:deskcolor="#d1d1d1"
     inkscape:document-units="mm"
     inkscape:zoom="0.98893837"
     inkscape:cx="-2.0223707"
     inkscape:cy="265.43616"
     inkscape:current-layer="svg5" />
  <defs
     id="defs1">
    <clipPath
       id="clipPath391906">
      <path
         d="m1414.1 2016.6v10.93h3.7475v39.348h16.863v-39.348h24.358v-10.93z"
         fill="#a00"
         id="path1" />
    </clipPath>
  </defs>
  <g
     id="g6"
     transform="translate(17.942518,-16.745285)">
    <path
       id="text1"
       style="font-size:41.7294px;line-height:1.06;font-family:Helvetica;-inkscape-font-specification:Helvetica;fill:#333333;stroke-width:13.908;stroke-linejoin:round"
       d="m 2.6617373,21.793526 -12.231808,31.529602 h 4.51239 l 3.51668,-9.443858 h 5.166473 v -3.640584 h -3.91047595 l 5.33532395,-13.769774 0.834713,2.399476 4.3951487,-0.0087 -2.6421367,-7.066153 z"
       sodipodi:nodetypes="cccccccccccc" />
    <path
       style="fill:none;stroke:#000000;stroke-width:2.10894;stroke-linejoin:round;stroke-dasharray:none"
       d="M -12.243947,63.690983 H 2.4182453 v -4.76629 H -12.243947 v -41.11695 h 30.005066 c 0,0 3.152295,-0.350252 3.269042,3.502537 0.134429,4.43605 0,8.395643 0,8.395643"
       id="path391899"
       sodipodi:nodetypes="ccccccsc" />
    <path
       style="fill:none;stroke:#000000;stroke-width:2.10894;stroke-linejoin:round;stroke-dasharray:none"
       d="M 3.0233833,75.690973 H 33.7318 c 2.904203,0 2.565696,-2.38314 2.565696,-2.38314 0,0 0.393938,-2.36065 -2.565696,-2.38315 H 3.0233833 V 29.807736 H 33.028452 c 0,0 3.152296,-0.350251 3.269044,3.502539 0.134427,4.436048 0,31.462718 0,31.462718"
       id="path391901"
       sodipodi:nodetypes="cscccccsc" />
    <path
       style="font-size:58.6667px;line-height:1.06;font-family:Helvetica;-inkscape-font-specification:Helvetica;white-space:pre;fill:#800000;stroke-width:13.0553;stroke-linejoin:round"
       d="M 7.9097373,61.306063 26.337279,38.215352 H 9.2596443 V 34.636211 H 31.57312 v 3.497391 L 13.043266,61.101573 H 31.57312 v 3.57914 H 7.9097373 Z M 20.426592,34.636211 Z"
       id="text391904"
       aria-label="Z" />
  </g>
</svg>
