<?xml version="1.0" encoding="UTF-8" standalone="no"?>
<!-- Created with Inkscape (http://www.inkscape.org/) -->

<svg
   width="128mm"
   height="60mm"
   viewBox="0 0 127.99999 60"
   version="1.1"
   id="svg1"
   xml:space="preserve"
   inkscape:version="1.4.2 (ebf0e940, 2025-05-08)"
   sodipodi:docname="librolibero.svg"
   xmlns:inkscape="http://www.inkscape.org/namespaces/inkscape"
   xmlns:sodipodi="http://sodipodi.sourceforge.net/DTD/sodipodi-0.dtd"
   xmlns="http://www.w3.org/2000/svg"
   xmlns:svg="http://www.w3.org/2000/svg"><sodipodi:namedview
     id="namedview1"
     pagecolor="#ffffff"
     bordercolor="#000000"
     borderopacity="0.25"
     inkscape:showpageshadow="2"
     inkscape:pageopacity="0.0"
     inkscape:pagecheckerboard="0"
     inkscape:deskcolor="#d1d1d1"
     inkscape:document-units="mm"
     inkscape:zoom="1.0338439"
     inkscape:cx="36.756032"
     inkscape:cy="44.010512"
     inkscape:current-layer="layer1"><inkscape:page
       x="0"
       y="0"
       width="127.99998"
       height="60"
       id="page391909"
       margin="0 0 0.19947498"
       bleed="0" /></sodipodi:namedview><defs
     id="defs1"><rect
       x="1416.8624"
       y="2010.5953"
       width="395.17932"
       height="451.08273"
       id="rect391903" /><rect
       x="1416.8624"
       y="2010.5953"
       width="395.17932"
       height="451.08273"
       id="rect391904" /><clipPath
       clipPathUnits="userSpaceOnUse"
       id="clipPath391906"><path
         id="path391906"
         style="fill:#aa0000;stroke:none;stroke-width:2.96222;stroke-linejoin:round;stroke-dasharray:none"
         d="m 1414.1481,2016.5761 v 10.9302 h 3.7475 v 39.3481 h 16.8634 v -39.3481 h 24.3584 v -10.9302 z" /></clipPath></defs><g
     inkscape:label="Layer 1"
     inkscape:groupmode="layer"
     id="layer1"><path
       id="text1"
       style="font-size:41.7294px;line-height:1.06;font-family:Helvetica;-inkscape-font-specification:Helvetica;fill:#333333;stroke-width:13.908;stroke-linejoin:round"
       d="M 15.960163,5.0484059 3.7283552,36.578008 H 8.240745 l 3.51668,-9.443858 h 5.166473 v -3.640584 h -3.910476 l 5.335324,-13.7697739 0.834713,2.3994759 4.395149,-0.0087 -2.642137,-7.0661528 z"
       sodipodi:nodetypes="cccccccccccc" /><path
       style="fill:none;stroke:#000000;stroke-width:2.10894;stroke-linejoin:round;stroke-dasharray:none"
       d="M 1.0544792,46.945862 H 15.716671 V 42.179573 H 1.0544792 V 1.0626231 H 31.059545 c 0,0 3.152295,-0.35025181 3.269042,3.5025365 0.134429,4.4360504 0,8.3956434 0,8.3956434"
       id="path391899"
       sodipodi:nodetypes="ccccccsc" /><path
       style="fill:none;stroke:#000000;stroke-width:2.10894;stroke-linejoin:round;stroke-dasharray:none"
       d="m 16.321809,58.945855 h 30.708417 c 2.904203,0 2.565696,-2.383144 2.565696,-2.383144 0,0 0.393938,-2.360651 -2.565696,-2.383145 H 16.321809 v -41.11695 h 30.005069 c 0,0 3.152296,-0.350251 3.269044,3.502539 0.134427,4.436048 0,31.462719 0,31.462719"
       id="path391901"
       sodipodi:nodetypes="cscccccsc" /><path
       style="font-size:58.6667px;line-height:1.06;font-family:Helvetica;-inkscape-font-specification:Helvetica;white-space:pre;fill:#800000;stroke-width:13.0553;stroke-linejoin:round"
       d="M 21.208163,44.560938 39.635705,21.470232 H 22.55807 v -3.579141 h 22.313476 v 3.497391 L 26.341692,44.356456 h 18.529854 v 3.579141 H 21.208163 Z M 33.725018,17.891091 Z"
       id="text391904"
       aria-label="Z" /><path
       style="font-weight:500;font-size:25.7471px;line-height:1.06;font-family:'Be Vietnam Pro';-inkscape-font-specification:'Be Vietnam Pro Medium';fill:#1a1a1a;stroke-width:8.02493;stroke-linejoin:round"
       d="m 58.818077,30.693535 0.02575,-19.567797 h 2.909423 v 19.567797 z m 8.419322,-15.98895 q -0.79816,0 -1.313103,-0.540689 -0.514942,-0.540689 -0.514942,-1.261608 0,-0.746666 0.514942,-1.261608 0.514943,-0.540689 1.313103,-0.540689 0.79816,0 1.313102,0.540689 0.540689,0.514942 0.540689,1.261608 0,0.746666 -0.540689,1.287355 -0.514942,0.514942 -1.313102,0.514942 z m -1.441838,15.98895 V 17.047571 h 2.935169 v 13.645964 z m 14.341126,0.257471 q -1.313102,0 -2.188504,-0.411954 -0.849654,-0.411953 -1.364596,-0.952642 -0.489195,-0.54069 -0.746666,-0.926896 h -0.154483 v 2.034021 H 72.747269 V 11.125738 h 2.935169 v 7.955854 h 0.154483 q 0.257471,-0.386206 0.746666,-0.926895 0.514942,-0.540689 1.364596,-0.952643 0.875402,-0.411954 2.188504,-0.411954 1.519079,0 2.677698,0.617931 1.15862,0.592183 1.905286,1.622067 0.772413,1.004137 1.132872,2.265745 0.386207,1.261608 0.386207,2.57471 0,1.313102 -0.386207,2.57471 -0.360459,1.261608 -1.132872,2.291492 -0.746666,1.004137 -1.905286,1.622068 -1.158619,0.592183 -2.677698,0.592183 z m -0.669425,-2.445975 q 1.287355,0 2.111262,-0.669424 0.849655,-0.695172 1.261608,-1.750803 0.437701,-1.055631 0.437701,-2.214251 0,-1.158619 -0.437701,-2.214251 -0.411953,-1.055631 -1.261608,-1.725055 -0.823907,-0.695172 -2.111262,-0.695172 -1.261608,0 -2.111262,0.695172 -0.823907,0.669424 -1.261608,1.725055 -0.411954,1.055632 -0.411954,2.214251 0,1.15862 0.411954,2.214251 0.437701,1.055631 1.261608,1.750803 0.849654,0.669424 2.111262,0.669424 z m 9.93837,2.188504 V 17.047571 h 2.93517 v 1.802297 h 0.102988 q 0.386207,-0.79816 1.210114,-1.41609 0.849654,-0.643678 2.445974,-0.643678 0.489195,0 0.823908,0.0515 0.360459,0.05149 0.360459,0.05149 v 2.832181 q 0,0 -0.386206,-0.05149 -0.386207,-0.05149 -0.875402,-0.05149 -1.802297,0 -2.75494,1.029885 -0.926895,1.004136 -0.926895,3.269881 v 6.771488 z m 16.169148,0.257471 q -2.23999,0 -3.78482,-1.004137 -1.51908,-1.004137 -2.317239,-2.626204 -0.772413,-1.622068 -0.772413,-3.450112 0,-1.828044 0.772413,-3.450111 0.798159,-1.622068 2.317239,-2.626205 1.54483,-1.004137 3.78482,-1.004137 2.21425,0 3.73333,1.004137 1.54483,1.004137 2.31724,2.626205 0.79816,1.622067 0.79816,3.450111 0,1.828044 -0.79816,3.450112 -0.77241,1.622067 -2.31724,2.626204 -1.51908,1.004137 -3.73333,1.004137 z m 0,-2.497469 q 1.26161,0 2.11127,-0.643677 0.8754,-0.643678 1.3131,-1.699309 0.46345,-1.055631 0.46345,-2.239998 0,-1.210114 -0.46345,-2.239998 -0.4377,-1.055631 -1.3131,-1.699308 -0.84966,-0.643678 -2.11127,-0.643678 -1.2616,0 -2.13701,0.643678 -0.8754,0.643677 -1.3131,1.699308 -0.4377,1.029884 -0.4377,2.239998 0,1.184367 0.4377,2.239998 0.4377,1.055631 1.3131,1.699309 0.87541,0.643677 2.13701,0.643677 z"
       id="path1" /><path
       style="font-weight:500;font-size:25.7471px;line-height:1.06;font-family:'Be Vietnam Pro';-inkscape-font-specification:'Be Vietnam Pro Medium';fill:#333333;stroke-width:8.02493;stroke-linejoin:round"
       d="m 58.818077,58.623288 0.02575,-19.567797 h 2.909423 v 19.567797 z m 8.419322,-15.98895 q -0.79816,0 -1.313103,-0.540689 -0.514942,-0.540689 -0.514942,-1.261608 0,-0.746666 0.514942,-1.261608 0.514943,-0.540689 1.313103,-0.540689 0.79816,0 1.313102,0.540689 0.540689,0.514942 0.540689,1.261608 0,0.746666 -0.540689,1.287355 -0.514942,0.514942 -1.313102,0.514942 z m -1.441838,15.98895 V 44.977324 h 2.935169 v 13.645964 z m 14.341126,0.257471 q -1.313102,0 -2.188504,-0.411954 -0.849654,-0.411953 -1.364596,-0.952643 -0.489195,-0.540689 -0.746666,-0.926895 h -0.154483 v 2.034021 H 72.747269 V 39.055491 h 2.935169 v 7.955854 h 0.154483 q 0.257471,-0.386206 0.746666,-0.926895 0.514942,-0.540689 1.364596,-0.952643 0.875402,-0.411954 2.188504,-0.411954 1.519079,0 2.677698,0.617931 1.15862,0.592183 1.905286,1.622067 0.772413,1.004137 1.132872,2.265745 0.386207,1.261608 0.386207,2.57471 0,1.313102 -0.386207,2.57471 -0.360459,1.261608 -1.132872,2.291492 -0.746666,1.004137 -1.905286,1.622067 -1.158619,0.592184 -2.677698,0.592184 z m -0.669425,-2.445975 q 1.287355,0 2.111262,-0.669424 0.849655,-0.695172 1.261608,-1.750803 0.437701,-1.055631 0.437701,-2.214251 0,-1.158619 -0.437701,-2.214251 -0.411953,-1.055631 -1.261608,-1.725055 -0.823907,-0.695172 -2.111262,-0.695172 -1.261608,0 -2.111262,0.695172 -0.823907,0.669424 -1.261608,1.725055 -0.411954,1.055632 -0.411954,2.214251 0,1.15862 0.411954,2.214251 0.437701,1.055631 1.261608,1.750803 0.849654,0.669424 2.111262,0.669424 z"
       id="path2" /><path
       style="font-weight:500;font-size:25.7471px;line-height:1.06;font-family:'Be Vietnam Pro';-inkscape-font-specification:'Be Vietnam Pro Medium';fill:#800000;stroke-width:8.02493;stroke-linejoin:round"
       d="m 95.81666,58.880759 q -1.725055,0 -2.986663,-0.592184 -1.235861,-0.61793 -2.059768,-1.622067 -0.798161,-1.029884 -1.210114,-2.291492 -0.386207,-1.261608 -0.386207,-2.57471 0,-1.287355 0.386207,-2.548963 0.386206,-1.261608 1.184367,-2.291492 0.79816,-1.029884 2.03402,-1.622067 1.235861,-0.617931 2.909423,-0.617931 1.802297,0 3.166893,0.823908 1.390342,0.79816 2.162752,2.39448 0.79816,1.570573 0.79816,3.913559 v 0.79816 h -9.680905 q 0.102988,1.570574 1.055631,2.703446 0.952643,1.132872 2.626204,1.132872 0.952643,0 1.570574,-0.308965 0.61793,-0.334712 0.952642,-0.746666 0.334713,-0.411953 0.463448,-0.720919 0.154483,-0.308965 0.154483,-0.308965 H 101.687 q 0,0 -0.12874,0.463448 -0.12873,0.437701 -0.48919,1.107125 -0.33471,0.669425 -0.97839,1.33885 -0.643678,0.669424 -1.69931,1.132872 -1.055631,0.437701 -2.57471,0.437701 z m -3.656088,-8.290567 h 6.822982 q -0.102989,-1.802297 -1.081378,-2.651951 -0.952643,-0.849654 -2.239998,-0.849654 -1.441838,0 -2.394481,0.952642 -0.952642,0.926896 -1.107125,2.548963 z m 12.822038,8.033096 V 44.977324 h 2.93517 v 1.802297 h 0.10299 q 0.38621,-0.79816 1.21012,-1.41609 0.84965,-0.643678 2.44597,-0.643678 0.4892,0 0.82391,0.0515 0.36046,0.05149 0.36046,0.05149 v 2.832181 q 0,0 -0.38621,-0.05149 -0.38621,-0.0515 -0.8754,-0.0515 -1.8023,0 -2.75494,1.029884 -0.9269,1.004137 -0.9269,3.269882 v 6.771488 z m 16.16916,0.257471 q -2.24,0 -3.78483,-1.004137 -1.51907,-1.004137 -2.31723,-2.626204 -0.77242,-1.622068 -0.77242,-3.450112 0,-1.828044 0.77242,-3.450111 0.79816,-1.622068 2.31723,-2.626205 1.54483,-1.004137 3.78483,-1.004137 2.21425,0 3.73333,1.004137 1.54482,1.004137 2.31724,2.626205 0.79816,1.622067 0.79816,3.450111 0,1.828044 -0.79816,3.450112 -0.77242,1.622067 -2.31724,2.626204 -1.51908,1.004137 -3.73333,1.004137 z m 0,-2.497469 q 1.26161,0 2.11126,-0.643678 0.8754,-0.643677 1.3131,-1.699308 0.46345,-1.055631 0.46345,-2.239998 0,-1.210114 -0.46345,-2.239998 -0.4377,-1.055631 -1.3131,-1.699308 -0.84965,-0.643678 -2.11126,-0.643678 -1.26161,0 -2.13701,0.643678 -0.8754,0.643677 -1.3131,1.699308 -0.4377,1.029884 -0.4377,2.239998 0,1.184367 0.4377,2.239998 0.4377,1.055631 1.3131,1.699308 0.8754,0.643678 2.13701,0.643678 z"
       id="path3" /></g></svg>
